<svg width="1791" height="224" viewBox="0 0 1791 224" fill="none" xmlns="http://www.w3.org/2000/svg">
<rect width="1790.51" height="224" fill="white"/>
<path d="M134.001 44C96.4465 44 66 74.4434 66 111.999C66 149.554 96.4465 180 134.001 180C171.555 180 202 149.554 202 111.999C202 74.4434 171.554 44 134.001 44ZM134.001 171.269C123.316 171.269 114.653 164.131 114.653 155.329H153.348C153.348 164.13 144.685 171.269 134.001 171.269ZM165.957 150.05H102.041V138.46H165.958L165.957 150.05ZM165.727 132.495H102.223C102.012 132.251 101.796 132.011 101.592 131.764C95.0497 123.82 93.5089 119.672 92.0125 115.446C91.9873 115.307 99.9457 117.072 105.589 118.342C105.589 118.342 108.493 119.014 112.739 119.788C108.663 115.009 106.242 108.935 106.242 102.726C106.242 89.0945 116.697 77.1831 112.925 67.5553C116.596 67.8541 120.522 75.3026 120.787 86.9489C124.69 81.556 126.323 71.7074 126.323 65.6688C126.323 59.4167 130.443 52.1542 134.563 51.9058C130.89 57.9599 135.515 63.15 139.626 76.0251C141.168 80.8612 140.971 88.9997 142.162 94.161C142.557 83.4412 144.4 67.8001 151.2 62.4C148.2 69.2005 151.644 77.7099 154 81.8008C157.8 88.4009 160.104 93.4014 160.104 102.859C160.104 109.2 157.763 115.17 153.814 119.837C158.304 118.994 161.405 118.235 161.405 118.235L175.988 115.389C175.989 115.388 173.87 124.103 165.727 132.495Z" fill="#E6522C"/>
<path d="M249 120.956H253.47C253.953 120.956 254.347 121.066 254.654 121.285C254.961 121.504 255.18 121.794 255.311 122.156L259.946 134.976C260.154 135.535 260.365 136.143 260.579 136.8C260.793 137.458 260.992 138.148 261.179 138.871C261.332 138.148 261.51 137.458 261.713 136.8C261.916 136.143 262.116 135.535 262.313 134.976L266.915 122.156C267.024 121.849 267.238 121.573 267.556 121.326C267.874 121.079 268.263 120.956 268.723 120.956H273.226L263.628 144.903H258.598L249 120.956Z" fill="#171514"/>
<path d="M284.567 144.903H278.979V120.956H284.567V144.903Z" fill="#171514"/>
<path d="M308.381 138.707C308.513 138.707 308.644 138.732 308.776 138.781C308.907 138.83 309.033 138.915 309.154 139.036L311.356 141.353C310.392 142.613 309.184 143.564 307.732 144.205C306.28 144.845 304.563 145.166 302.58 145.166C300.761 145.166 299.131 144.857 297.69 144.237C296.249 143.619 295.027 142.764 294.025 141.673C293.022 140.583 292.252 139.29 291.715 137.795C291.179 136.299 290.91 134.675 290.91 132.921C290.91 131.136 291.217 129.494 291.831 127.999C292.444 126.503 293.301 125.213 294.403 124.128C295.504 123.044 296.821 122.2 298.356 121.597C299.889 120.995 301.582 120.693 303.434 120.693C304.332 120.693 305.179 120.773 305.973 120.932C306.768 121.09 307.51 121.309 308.2 121.589C308.891 121.868 309.526 122.203 310.107 122.592C310.688 122.981 311.203 123.411 311.652 123.882L309.778 126.396C309.657 126.55 309.515 126.69 309.351 126.816C309.187 126.942 308.957 127.004 308.661 127.004C308.463 127.004 308.277 126.961 308.102 126.873C307.927 126.785 307.74 126.679 307.543 126.552C307.346 126.427 307.129 126.29 306.894 126.142C306.658 125.994 306.379 125.857 306.056 125.731C305.732 125.605 305.354 125.498 304.921 125.41C304.489 125.323 303.982 125.279 303.401 125.279C302.393 125.279 301.473 125.457 300.64 125.813C299.807 126.169 299.092 126.679 298.495 127.341C297.898 128.005 297.432 128.807 297.098 129.749C296.764 130.692 296.597 131.749 296.597 132.921C296.597 134.149 296.764 135.239 297.098 136.192C297.432 137.145 297.887 137.948 298.462 138.6C299.038 139.252 299.709 139.748 300.476 140.087C301.243 140.427 302.064 140.597 302.941 140.597C303.445 140.597 303.905 140.572 304.322 140.523C304.738 140.474 305.124 140.389 305.48 140.268C305.836 140.148 306.176 139.992 306.499 139.8C306.822 139.608 307.149 139.37 307.477 139.085C307.609 138.975 307.751 138.885 307.905 138.813C308.058 138.742 308.217 138.707 308.381 138.707Z" fill="#171514"/>
<path d="M334.564 120.956V125.361H327.825V144.903H322.27V125.361H315.531V120.956H334.564Z" fill="#171514"/>
<path d="M357.113 132.921C357.113 131.738 356.959 130.672 356.653 129.725C356.346 128.777 355.905 127.974 355.33 127.317C354.754 126.659 354.05 126.155 353.218 125.805C352.385 125.454 351.437 125.279 350.374 125.279C349.3 125.279 348.344 125.454 347.506 125.805C346.668 126.155 345.961 126.659 345.386 127.317C344.811 127.974 344.369 128.777 344.063 129.725C343.756 130.672 343.603 131.738 343.603 132.921C343.603 134.116 343.756 135.187 344.063 136.135C344.369 137.082 344.811 137.885 345.386 138.542C345.961 139.2 346.668 139.701 347.506 140.046C348.344 140.392 349.3 140.564 350.374 140.564C351.437 140.564 352.385 140.392 353.218 140.046C354.05 139.701 354.754 139.2 355.33 138.542C355.905 137.885 356.346 137.082 356.653 136.135C356.959 135.187 357.113 134.116 357.113 132.921ZM362.8 132.921C362.8 134.653 362.501 136.264 361.904 137.753C361.307 139.244 360.466 140.539 359.381 141.64C358.296 142.742 356.989 143.605 355.461 144.229C353.933 144.854 352.237 145.166 350.374 145.166C348.511 145.166 346.813 144.854 345.279 144.229C343.745 143.605 342.433 142.742 341.343 141.64C340.252 140.539 339.409 139.244 338.812 137.753C338.214 136.264 337.916 134.653 337.916 132.921C337.916 131.19 338.214 129.579 338.812 128.089C339.409 126.599 340.252 125.306 341.343 124.21C342.433 123.115 343.745 122.255 345.279 121.63C346.813 121.005 348.511 120.693 350.374 120.693C352.237 120.693 353.933 121.008 355.461 121.638C356.989 122.268 358.296 123.131 359.381 124.227C360.466 125.323 361.307 126.616 361.904 128.106C362.501 129.596 362.8 131.201 362.8 132.921Z" fill="#171514"/>
<path d="M374.305 132.215H376.541C377.297 132.215 377.94 132.119 378.472 131.927C379.003 131.736 379.439 131.47 379.778 131.13C380.118 130.79 380.365 130.393 380.518 129.938C380.671 129.484 380.748 128.993 380.748 128.467C380.748 127.416 380.406 126.594 379.721 126.002C379.036 125.41 377.976 125.114 376.541 125.114H374.305V132.215ZM374.305 136.044V144.903H368.75V120.956H376.541C378.272 120.956 379.748 121.134 380.97 121.49C382.192 121.846 383.189 122.342 383.961 122.978C384.734 123.613 385.295 124.364 385.646 125.23C385.997 126.095 386.172 127.037 386.172 128.056C386.172 128.835 386.068 129.569 385.86 130.259C385.651 130.949 385.342 131.588 384.931 132.174C384.52 132.76 384.016 133.283 383.419 133.743C382.822 134.203 382.134 134.581 381.356 134.877C381.729 135.064 382.077 135.294 382.4 135.567C382.723 135.842 383.005 136.176 383.246 136.57L388.341 144.903H383.312C382.381 144.903 381.712 144.553 381.307 143.851L377.329 136.899C377.154 136.592 376.949 136.373 376.713 136.242C376.478 136.11 376.146 136.044 375.719 136.044H374.305Z" fill="#171514"/>
<path d="M399.977 144.903H394.389V120.956H399.977V144.903Z" fill="#171514"/>
<path d="M414.606 135.749H421.147L418.945 129.19C418.803 128.774 418.635 128.284 418.444 127.72C418.252 127.155 418.063 126.544 417.877 125.887C417.701 126.556 417.52 127.174 417.334 127.744C417.148 128.314 416.973 128.807 416.808 129.223L414.606 135.749ZM429.99 144.903H425.684C425.201 144.903 424.804 144.791 424.492 144.566C424.18 144.342 423.963 144.054 423.843 143.703L422.43 139.529H413.324L411.91 143.703C411.801 144.01 411.587 144.287 411.27 144.533C410.952 144.78 410.563 144.903 410.103 144.903H405.764L415.033 120.956H420.72L429.99 144.903Z" fill="#171514"/>
<path d="M301.884 155.791C301.776 155.828 301.677 155.933 301.587 156.105L296.131 165.995C296.034 166.174 295.944 166.363 295.862 166.561C295.779 166.76 295.701 166.96 295.626 167.162C295.551 166.96 295.471 166.762 295.385 166.567C295.299 166.373 295.211 166.185 295.121 166.006L289.564 156.105C289.467 155.933 289.366 155.828 289.261 155.791C289.156 155.753 289.007 155.735 288.812 155.735H287.207V171.821H289.115V160C289.115 159.664 289.093 159.297 289.048 158.9L294.683 169.003C294.855 169.34 295.117 169.508 295.469 169.508H295.783C296.135 169.508 296.397 169.34 296.569 169.003L302.092 158.945C302.077 159.132 302.064 159.315 302.053 159.495C302.041 159.675 302.036 159.843 302.036 160V171.821H303.944V155.735H302.339C302.144 155.735 301.992 155.753 301.884 155.791Z" fill="#171514"/>
<path d="M312.475 164.558H318.738V162.851H312.475V157.508H320.209V155.735H310.297V171.821H320.209L320.22 170.047H312.475V164.558Z" fill="#171514"/>
<path d="M323.791 157.564H329.011V171.821H331.177V157.564H336.386V155.735H323.791V157.564Z" fill="#171514"/>
<path d="M345.467 163.525H343.177V157.452H345.556C346.814 157.452 347.756 157.695 348.385 158.182C349.014 158.668 349.328 159.391 349.328 160.348C349.328 160.82 349.245 161.25 349.081 161.639C348.916 162.028 348.671 162.363 348.346 162.644C348.02 162.925 347.616 163.142 347.133 163.295C346.651 163.448 346.095 163.525 345.467 163.525ZM347.487 164.749C348.108 164.607 348.664 164.397 349.154 164.12C349.644 163.843 350.06 163.508 350.4 163.115C350.741 162.722 351 162.279 351.18 161.785C351.36 161.291 351.45 160.76 351.45 160.191C351.45 159.51 351.333 158.895 351.101 158.345C350.87 157.794 350.512 157.325 350.029 156.936C349.547 156.547 348.935 156.249 348.194 156.043C347.453 155.837 346.574 155.735 345.556 155.735H341.01V171.821H343.177V165.108H344.827C345.133 165.108 345.36 165.147 345.506 165.226C345.652 165.304 345.788 165.433 345.915 165.613L350.091 171.36C350.278 171.667 350.57 171.821 350.967 171.821H352.897L348.205 165.433C348.003 165.134 347.764 164.906 347.487 164.749Z" fill="#171514"/>
<path d="M357.32 171.821H359.498V155.735H357.32V171.821Z" fill="#171514"/>
<path d="M376.718 168.498C376.591 168.498 376.464 168.554 376.336 168.666C376.06 168.921 375.781 169.14 375.5 169.323C375.22 169.506 374.916 169.658 374.591 169.777C374.266 169.897 373.91 169.985 373.524 170.041C373.139 170.097 372.707 170.126 372.228 170.126C371.442 170.126 370.711 169.984 370.034 169.699C369.356 169.414 368.769 169.001 368.271 168.459C367.773 167.916 367.38 167.252 367.092 166.466C366.804 165.68 366.66 164.786 366.66 163.783C366.66 162.795 366.799 161.908 367.076 161.123C367.352 160.337 367.74 159.671 368.237 159.125C368.735 158.578 369.328 158.161 370.016 157.873C370.705 157.585 371.464 157.441 372.295 157.441C372.984 157.441 373.564 157.514 374.035 157.66C374.507 157.805 374.899 157.968 375.214 158.148C375.528 158.328 375.783 158.49 375.977 158.636C376.172 158.782 376.336 158.855 376.471 158.855C376.591 158.855 376.686 158.831 376.758 158.782C376.829 158.734 376.887 158.672 376.931 158.597L377.65 157.598C376.983 156.97 376.213 156.472 375.337 156.105C374.462 155.738 373.451 155.555 372.306 155.555C371.139 155.555 370.073 155.755 369.107 156.156C368.142 156.556 367.313 157.119 366.621 157.845C365.929 158.571 365.392 159.439 365.01 160.449C364.628 161.459 364.438 162.571 364.438 163.783C364.438 164.995 364.621 166.107 364.988 167.117C365.354 168.127 365.871 168.994 366.537 169.716C367.202 170.438 368.007 170.999 368.95 171.399C369.893 171.8 370.941 172 372.093 172C373.425 172 374.561 171.787 375.5 171.36C376.439 170.934 377.238 170.339 377.897 169.575L377.032 168.644C376.943 168.546 376.838 168.498 376.718 168.498Z" fill="#171514"/>
<path d="M391.451 165.254C391.23 164.797 390.938 164.412 390.575 164.097C390.212 163.783 389.801 163.523 389.34 163.317C388.88 163.111 388.409 162.926 387.926 162.762C387.443 162.597 386.972 162.438 386.511 162.285C386.051 162.131 385.639 161.95 385.276 161.74C384.913 161.531 384.622 161.278 384.401 160.982C384.18 160.687 384.07 160.314 384.07 159.865C384.07 159.514 384.134 159.186 384.261 158.883C384.388 158.58 384.577 158.316 384.828 158.092C385.078 157.867 385.389 157.69 385.759 157.559C386.13 157.428 386.558 157.362 387.045 157.362C387.561 157.362 388 157.426 388.364 157.553C388.727 157.68 389.037 157.821 389.295 157.974C389.554 158.127 389.769 158.268 389.941 158.395C390.113 158.522 390.262 158.586 390.39 158.586C390.502 158.586 390.598 158.558 390.676 158.501C390.755 158.445 390.827 158.361 390.895 158.249L391.423 157.216C390.861 156.677 390.212 156.266 389.475 155.982C388.738 155.697 387.92 155.555 387.022 155.555C386.222 155.555 385.512 155.679 384.895 155.925C384.278 156.172 383.757 156.502 383.334 156.913C382.912 157.325 382.59 157.796 382.369 158.328C382.148 158.859 382.038 159.409 382.038 159.978C382.038 160.689 382.148 161.285 382.369 161.768C382.59 162.251 382.88 162.653 383.239 162.975C383.598 163.297 384.01 163.559 384.474 163.76C384.938 163.963 385.409 164.14 385.888 164.294C386.367 164.447 386.839 164.597 387.303 164.743C387.767 164.889 388.179 165.067 388.537 165.276C388.897 165.486 389.187 165.746 389.408 166.056C389.628 166.367 389.739 166.765 389.739 167.252C389.739 167.693 389.664 168.094 389.515 168.453C389.365 168.812 389.149 169.121 388.869 169.379C388.588 169.637 388.246 169.837 387.842 169.98C387.437 170.122 386.977 170.193 386.461 170.193C386.05 170.193 385.679 170.153 385.349 170.075C385.02 169.996 384.727 169.897 384.468 169.777C384.21 169.658 383.98 169.527 383.778 169.385C383.576 169.242 383.397 169.111 383.239 168.992C383.082 168.872 382.942 168.773 382.818 168.694C382.695 168.616 382.584 168.576 382.487 168.576C382.382 168.576 382.287 168.604 382.201 168.661C382.115 168.717 382.042 168.786 381.982 168.868L381.354 169.901C381.96 170.545 382.689 171.055 383.542 171.433C384.395 171.811 385.346 172 386.394 172C387.247 172 388.008 171.869 388.678 171.607C389.347 171.345 389.913 170.986 390.373 170.529C390.833 170.073 391.183 169.536 391.423 168.919C391.662 168.301 391.782 167.641 391.782 166.937C391.782 166.272 391.671 165.71 391.451 165.254Z" fill="#171514"/>
<path d="M335.394 75.9788C336.313 76.7628 337.858 77.3579 339.409 77.3782V77.3798C339.438 77.3803 339.466 77.379 339.495 77.379C339.523 77.379 339.552 77.3803 339.58 77.3798V77.3782C341.131 77.3579 342.677 76.7628 343.596 75.9788C348.441 71.8467 362.46 58.9954 362.46 58.9954C366.224 55.4946 355.754 52.0202 339.58 52.0004V51.9999C339.57 51.9999 339.559 51.9999 339.548 51.9999C339.53 51.9999 339.513 52.0002 339.495 52.0002C339.477 52.0002 339.459 51.9999 339.441 51.9999C339.431 51.9999 339.42 51.9999 339.409 51.9999V52.0004C323.235 52.0202 312.766 55.4946 316.529 58.9954C316.529 58.9954 330.549 71.8467 335.394 75.9788Z" fill="#171514"/>
<path d="M343.592 82.9379C342.673 83.7219 341.127 84.317 339.576 84.3373V84.3388C339.55 84.3391 339.524 84.3383 339.498 84.338C339.497 84.338 339.496 84.338 339.494 84.338C339.493 84.338 339.492 84.338 339.49 84.338C339.465 84.3383 339.439 84.3391 339.413 84.3388V84.3373C337.862 84.317 336.316 83.7219 335.397 82.9379C332.046 80.0794 320.22 69.3572 315.766 65.2942C315.766 67.9222 315.766 70.138 315.766 71.4992C315.766 72.1806 316.027 73.0854 316.49 73.5103C319.518 76.2867 331.196 86.9757 335.397 90.5589C336.316 91.3427 337.862 91.9378 339.413 91.958V91.9598C339.44 91.9604 339.467 91.9591 339.494 91.9591C339.522 91.9591 339.549 91.9604 339.576 91.9598V91.958C341.127 91.9378 342.673 91.3427 343.592 90.5589C347.793 86.9757 359.471 76.2867 362.499 73.5103C362.962 73.0854 363.223 72.1806 363.223 71.4992C363.223 70.138 363.223 67.9222 363.223 65.2942C358.769 69.3572 346.943 80.0794 343.592 82.9379Z" fill="#171514"/>
<path d="M343.592 97.5224C342.673 98.3062 341.127 98.9013 339.576 98.9216V98.9234C339.55 98.9236 339.524 98.9229 339.498 98.9226C339.497 98.9226 339.496 98.9226 339.494 98.9226C339.493 98.9226 339.492 98.9226 339.49 98.9226C339.465 98.9229 339.439 98.9236 339.413 98.9234V98.9216C337.862 98.9013 336.316 98.3062 335.397 97.5224C332.046 94.6639 320.22 83.9414 315.766 79.8787C315.766 82.5067 315.766 84.7223 315.766 86.0838C315.766 86.7651 316.027 87.6697 316.49 88.0951C319.518 90.871 331.196 101.56 335.397 105.143C336.316 105.927 337.862 106.522 339.413 106.543V106.544C339.44 106.545 339.467 106.544 339.494 106.544C339.522 106.544 339.549 106.545 339.576 106.544V106.543C341.127 106.522 342.673 105.927 343.592 105.143C347.793 101.56 359.471 90.871 362.499 88.0951C362.962 87.6697 363.223 86.7651 363.223 86.0838C363.223 84.7223 363.223 82.5067 363.223 79.8787C358.769 83.9414 346.943 94.6639 343.592 97.5224Z" fill="#171514"/>
<g clip-path="url(#clip0_708_6383)">
<path d="M552.751 58.343V115.168H592.997C597.394 115.168 601.611 113.421 604.72 110.312C607.829 107.203 609.575 102.986 609.575 98.589V58.343H552.751ZM597.044 94.163H599.165V96.284H597.044V94.163ZM596.377 85.032H599.823V88.479H596.377V85.032ZM595.847 76.032H600.354V80.543H595.847V76.032ZM588.571 102.632H590.69V104.753H588.569L588.571 102.632ZM587.908 93.393H591.355V96.843H587.908V93.393ZM587.378 84.502H591.89V89.009H587.383L587.378 84.502ZM587.908 80.01V76.564H591.355V80.01H587.908ZM571.634 102.632H573.755V104.753H571.634V102.632ZM570.971 93.501H574.418V96.943H570.971V93.501ZM571.634 87.816V85.695H573.755V87.816H571.634ZM570.971 76.564H574.418V80.01H570.971V76.564ZM563.165 102.632H565.29V104.753H563.165V102.632ZM563.165 94.163H565.29V96.284H563.165V94.163ZM562.503 85.032H565.949V88.479H562.503V85.032ZM561.972 76.032H566.48V80.543H561.972V76.032ZM559.99 65.584H602.332V74.053H585.397V107.927H576.929V74.053H559.99V65.584ZM476.99 121.828H510.213V128.489H497.268V164.98H489.935V128.489H476.99V121.828ZM523.735 134.773H542.718V164.98H535.69V141.434H523.735V164.98H516.708V121.828H523.735V134.773ZM552.79 140.937V134.773H574.92V164.98H561.109C554.388 164.98 550.137 161.16 550.137 155.362C550.137 149.564 554.699 145.743 561.109 145.743H568.015V140.937H552.79ZM568.018 158.937V151.789H560.99C558.275 151.789 556.49 152.898 556.49 155.362C556.49 157.826 558.277 158.936 560.99 158.936L568.018 158.937ZM583.565 134.773H609.575V164.98H602.548V141.434H590.59V164.98H583.563L583.565 134.773ZM632.283 134.035C635.418 133.992 638.495 134.881 641.124 136.591C643.752 138.3 645.813 140.753 647.044 143.636C648.275 146.52 648.621 149.704 648.039 152.785C647.456 155.865 645.97 158.703 643.771 160.938C641.571 163.172 638.757 164.702 635.686 165.334C632.615 165.965 629.426 165.669 626.523 164.483C623.62 163.298 621.136 161.276 619.385 158.675C617.634 156.074 616.696 153.011 616.69 149.876C616.642 147.803 617.01 145.742 617.773 143.815C618.537 141.887 619.679 140.132 621.134 138.655C622.588 137.177 624.324 136.007 626.24 135.214C628.155 134.42 630.21 134.019 632.283 134.035ZM632.283 159.308C637.152 159.308 640.665 155.362 640.665 149.876C640.665 144.39 637.152 140.445 632.283 140.445C627.349 140.445 623.835 144.39 623.835 149.876C623.835 155.362 627.349 159.308 632.283 159.308ZM662.75 152.587C657.083 151.171 653.565 148.275 653.565 143.035C653.565 137.423 658.253 134.035 664.602 134.035C666.735 134.019 668.846 134.463 670.792 135.335C672.738 136.207 674.474 137.488 675.881 139.09L671.504 143.898C670.715 142.74 669.659 141.789 668.426 141.124C667.193 140.458 665.818 140.098 664.417 140.074C661.827 140.074 660.286 141.374 660.286 142.91C660.286 144.39 661.586 145.379 663.247 145.745L667.99 146.855C673.17 148.089 676.99 150.986 676.99 156.286C676.99 161.526 672.924 165.657 664.974 165.657C662.564 165.743 660.168 165.258 657.981 164.24C655.795 163.222 653.881 161.7 652.395 159.8L656.832 155.242C657.819 156.62 659.126 157.739 660.64 158.501C662.155 159.263 663.831 159.647 665.526 159.619C669.165 159.619 670.209 158.013 670.209 156.532C670.209 155.242 669.409 154.253 666.761 153.576L662.75 152.587Z" fill="#6D41FF"/>
</g>
<g clip-path="url(#clip1_708_6383)">
<path d="M731.47 167.065C729.071 165.747 727.236 163.863 725.919 161.415C724.649 159.014 723.99 156.189 723.99 152.987C723.99 149.785 724.649 147.007 725.919 144.606C727.189 142.205 729.071 140.321 731.47 139.003C733.869 137.685 736.691 137.025 739.937 137.025C741.959 137.025 743.935 137.355 745.864 137.967C747.792 138.579 749.345 139.427 750.521 140.463L747.98 146.16C745.393 144.371 742.759 143.476 740.078 143.476C737.538 143.476 735.609 144.276 734.245 145.877C732.881 147.478 732.222 149.832 732.222 153.034C732.222 156.189 732.881 158.59 734.245 160.191C735.609 161.792 737.538 162.592 740.078 162.592C742.759 162.592 745.393 161.698 747.98 159.908L750.521 165.653C749.298 166.689 747.745 167.536 745.864 168.148C743.935 168.76 742.006 169.09 739.937 169.09C736.691 169.043 733.869 168.384 731.47 167.065Z" fill="#3CC48F"/>
<path d="M757.67 167.63C755.836 166.689 754.472 165.37 753.484 163.675C752.496 161.98 751.979 159.956 751.979 157.648C751.979 155.341 752.496 153.317 753.484 151.622C754.472 149.927 755.883 148.608 757.67 147.714C759.458 146.819 761.575 146.348 764.021 146.348C766.42 146.348 768.536 146.819 770.371 147.714C772.158 148.608 773.57 149.927 774.557 151.622C775.545 153.317 776.063 155.341 776.063 157.648C776.063 159.956 775.545 161.98 774.557 163.675C773.57 165.37 772.158 166.736 770.371 167.63C768.583 168.572 766.467 169.043 764.021 169.043C761.575 168.996 759.505 168.572 757.67 167.63ZM768.207 157.601C768.207 153.929 766.796 152.092 764.021 152.092C761.198 152.092 759.834 153.929 759.834 157.601C759.834 161.274 761.245 163.11 764.021 163.11C766.796 163.11 768.207 161.274 768.207 157.601Z" fill="#3CC48F"/>
<path d="M796.008 152.752L791.727 153.175C790.034 153.364 788.811 153.834 788.152 154.541C787.494 155.294 787.117 156.33 787.117 157.695V168.666H779.215V146.866H786.694V150.633C787.212 149.314 788.011 148.279 789.187 147.572C790.316 146.866 791.727 146.489 793.374 146.395L795.538 146.207L796.008 152.752Z" fill="#3CC48F"/>
<path d="M815.811 148.702C817.457 150.303 818.257 152.752 818.257 156.095V168.666H810.872V165.606C810.448 166.689 809.743 167.489 808.802 168.101C807.814 168.713 806.638 168.996 805.321 168.996C803.816 168.996 802.452 168.713 801.229 168.101C800.005 167.489 799.065 166.641 798.359 165.559C797.654 164.476 797.324 163.251 797.324 161.886C797.324 160.332 797.748 159.061 798.547 158.119C799.347 157.178 800.664 156.518 802.404 156.095C804.192 155.671 806.591 155.482 809.602 155.482H810.778V154.965C810.778 153.882 810.542 153.128 810.025 152.705C809.507 152.281 808.614 152.045 807.344 152.045C806.356 152.045 805.18 152.234 803.863 152.657C802.546 153.034 801.323 153.552 800.147 154.164L798.171 148.985C799.441 148.231 801.04 147.572 802.922 147.054C804.851 146.536 806.591 146.301 808.19 146.301C811.624 146.301 814.164 147.101 815.811 148.702ZM809.743 162.592C810.401 161.839 810.778 160.85 810.778 159.673V159.155H810.072C808.19 159.155 806.826 159.343 806.027 159.673C805.227 160.003 804.851 160.568 804.851 161.368C804.851 162.027 805.086 162.592 805.509 163.063C805.932 163.487 806.497 163.722 807.155 163.722C808.19 163.722 809.084 163.346 809.743 162.592Z" fill="#3CC48F"/>
<path d="M821.926 168.666V137.402H829.828V168.666H821.926Z" fill="#3CC48F"/>
<path d="M838.719 167.63C836.885 166.689 835.52 165.37 834.533 163.675C833.545 161.98 833.027 159.956 833.027 157.648C833.027 155.341 833.545 153.317 834.533 151.622C835.52 149.927 836.932 148.608 838.719 147.714C840.507 146.819 842.623 146.348 845.069 146.348C847.468 146.348 849.585 146.819 851.42 147.714C853.207 148.608 854.618 149.927 855.606 151.622C856.594 153.317 857.112 155.341 857.112 157.648C857.112 159.956 856.594 161.98 855.606 163.675C854.618 165.37 853.207 166.736 851.42 167.63C849.632 168.572 847.516 169.043 845.069 169.043C842.67 168.996 840.554 168.572 838.719 167.63ZM849.256 157.601C849.256 153.929 847.845 152.092 845.069 152.092C842.247 152.092 840.883 153.929 840.883 157.601C840.883 161.274 842.294 163.11 845.069 163.11C847.845 163.11 849.256 161.274 849.256 157.601Z" fill="#3CC48F"/>
<path d="M884.159 146.866V166.029C884.159 169.655 883.077 172.386 880.96 174.222C878.796 176.105 875.645 177 871.458 177C869.483 177 867.554 176.765 865.719 176.294C863.838 175.823 862.239 175.211 860.874 174.363L862.85 168.996C864.214 169.702 865.625 170.267 867.084 170.644C868.542 171.02 869.906 171.209 871.223 171.209C872.964 171.209 874.281 170.832 875.08 170.079C875.927 169.325 876.35 168.148 876.35 166.5V164.805C875.692 165.794 874.751 166.547 873.575 167.112C872.352 167.677 871.035 167.96 869.624 167.96C867.742 167.96 866.049 167.536 864.591 166.641C863.132 165.747 861.956 164.476 861.157 162.828C860.31 161.18 859.934 159.296 859.934 157.13C859.934 154.965 860.357 153.081 861.157 151.433C862.003 149.785 863.132 148.514 864.591 147.619C866.049 146.725 867.742 146.254 869.624 146.254C871.082 146.254 872.399 146.536 873.622 147.149C874.845 147.761 875.786 148.561 876.397 149.597V146.819H884.159V146.866ZM875.268 160.85C876.021 159.955 876.397 158.778 876.397 157.225C876.397 155.671 876.021 154.447 875.268 153.552C874.516 152.657 873.434 152.234 872.023 152.234C870.659 152.234 869.624 152.657 868.824 153.552C868.071 154.447 867.695 155.671 867.695 157.272C867.695 158.825 868.071 160.003 868.871 160.897C869.671 161.792 870.706 162.216 872.023 162.216C873.434 162.121 874.516 161.698 875.268 160.85Z" fill="#3CC48F"/>
<path d="M887.688 135.942H895.919V143.099H887.688V135.942ZM887.829 168.666V146.866H895.731V168.666H887.829Z" fill="#3CC48F"/>
<path d="M915.771 157.413L925.038 168.666H915.818L911.255 162.922L906.692 168.666H897.52L906.786 157.413L898.037 146.866H907.304L911.208 151.998L915.206 146.866H924.473L915.771 157.413Z" fill="#3CC48F"/>
<path d="M824.513 109.246C840.776 109.246 853.96 96.0492 853.96 79.7707C853.96 63.4922 840.776 50.2959 824.513 50.2959C808.25 50.2959 795.066 63.4922 795.066 79.7707C795.066 96.0492 808.25 109.246 824.513 109.246Z" fill="#3CC48F"/>
<path d="M824.513 112.494C806.45 112.494 791.773 97.804 791.773 79.7236C791.773 61.6432 806.45 46.9529 824.513 46.9529C842.576 46.9529 857.252 61.6432 857.252 79.7236C857.205 97.804 842.529 112.494 824.513 112.494ZM824.513 53.4976C810.072 53.4976 798.312 65.2687 798.312 79.7236C798.312 94.1785 810.072 105.95 824.513 105.95C838.954 105.95 850.714 94.1785 850.714 79.7236C850.714 65.2687 838.954 53.4976 824.513 53.4976Z" fill="#AEFFDC"/>
</g>
<path d="M1015.82 99.2759C1015.82 101.19 1016.02 102.741 1016.39 103.879C1016.8 105.017 1017.32 106.259 1018.04 107.603C1018.3 108.017 1018.4 108.431 1018.4 108.793C1018.4 109.31 1018.09 109.828 1017.42 110.345L1014.16 112.517C1013.7 112.828 1013.23 112.983 1012.82 112.983C1012.3 112.983 1011.78 112.724 1011.26 112.259C1010.54 111.483 1009.92 110.655 1009.4 109.828C1008.89 108.948 1008.37 107.966 1007.8 106.776C1003.76 111.534 998.696 113.914 992.592 113.914C988.248 113.914 984.782 112.672 982.248 110.19C979.713 107.707 978.42 104.397 978.42 100.259C978.42 95.8621 979.972 92.2931 983.127 89.6035C986.282 86.9138 990.472 85.569 995.799 85.569C997.558 85.569 999.368 85.7241 1001.28 85.9828C1003.2 86.2414 1005.16 86.6552 1007.23 87.1207V83.3448C1007.23 79.4138 1006.4 76.6724 1004.8 75.069C1003.14 73.4655 1000.35 72.6897 996.368 72.6897C994.558 72.6897 992.696 72.8966 990.782 73.3621C988.868 73.8276 987.006 74.3966 985.196 75.1207C984.368 75.4828 983.748 75.6897 983.385 75.7931C983.023 75.8966 982.765 75.9483 982.558 75.9483C981.834 75.9483 981.472 75.431 981.472 74.3448V71.8103C981.472 70.9828 981.575 70.3621 981.834 70C982.092 69.6379 982.558 69.2759 983.282 68.9138C985.092 67.9828 987.265 67.2069 989.799 66.5862C992.334 65.9138 995.023 65.6034 997.868 65.6034C1004.02 65.6034 1008.52 67 1011.42 69.7931C1014.26 72.5862 1015.71 76.8276 1015.71 82.5172V99.2759H1015.82ZM994.816 107.138C996.523 107.138 998.282 106.828 1000.14 106.207C1002.01 105.586 1003.66 104.448 1005.06 102.897C1005.89 101.914 1006.51 100.828 1006.82 99.5862C1007.13 98.3448 1007.33 96.8448 1007.33 95.0862V92.9138C1005.83 92.5517 1004.23 92.2414 1002.58 92.0345C1000.92 91.8276 999.316 91.7241 997.713 91.7241C994.248 91.7241 991.713 92.3966 990.006 93.7931C988.299 95.1897 987.472 97.1552 987.472 99.7414C987.472 102.172 988.092 103.983 989.385 105.224C990.627 106.517 992.437 107.138 994.816 107.138ZM1036.35 112.724C1035.42 112.724 1034.8 112.569 1034.39 112.207C1033.97 111.897 1033.61 111.172 1033.3 110.19L1021.14 70.2069C1020.83 69.1724 1020.68 68.5 1020.68 68.1379C1020.68 67.3103 1021.09 66.8448 1021.92 66.8448H1026.99C1027.97 66.8448 1028.64 67 1029.01 67.3621C1029.42 67.6724 1029.73 68.3966 1030.04 69.3793L1038.73 103.621L1046.8 69.3793C1047.06 68.3448 1047.37 67.6724 1047.78 67.3621C1048.2 67.0517 1048.92 66.8448 1049.85 66.8448H1053.99C1054.97 66.8448 1055.64 67 1056.06 67.3621C1056.47 67.6724 1056.83 68.3966 1057.04 69.3793L1065.21 104.034L1074.16 69.3793C1074.47 68.3448 1074.83 67.6724 1075.2 67.3621C1075.61 67.0517 1076.28 66.8448 1077.21 66.8448H1082.02C1082.85 66.8448 1083.32 67.2586 1083.32 68.1379C1083.32 68.3966 1083.26 68.6552 1083.21 68.9655C1083.16 69.2759 1083.06 69.6897 1082.85 70.2586L1070.39 110.241C1070.08 111.276 1069.71 111.948 1069.3 112.259C1068.89 112.569 1068.21 112.776 1067.33 112.776H1062.89C1061.9 112.776 1061.23 112.621 1060.82 112.259C1060.4 111.897 1060.04 111.224 1059.83 110.19L1051.82 76.8276L1043.85 110.138C1043.59 111.172 1043.28 111.845 1042.87 112.207C1042.45 112.569 1041.73 112.724 1040.8 112.724H1036.35ZM1102.82 114.121C1100.13 114.121 1097.44 113.81 1094.85 113.19C1092.26 112.569 1090.25 111.897 1088.9 111.121C1088.08 110.655 1087.51 110.138 1087.3 109.672C1087.09 109.207 1086.99 108.69 1086.99 108.224V105.586C1086.99 104.5 1087.4 103.983 1088.18 103.983C1088.49 103.983 1088.8 104.034 1089.11 104.138C1089.42 104.241 1089.89 104.448 1090.4 104.655C1092.16 105.431 1094.08 106.052 1096.09 106.466C1098.16 106.879 1100.18 107.086 1102.25 107.086C1105.51 107.086 1108.04 106.517 1109.8 105.379C1111.56 104.241 1112.49 102.586 1112.49 100.466C1112.49 99.0172 1112.02 97.8276 1111.09 96.8448C1110.16 95.8621 1108.4 94.9828 1105.87 94.1552L1098.37 91.8276C1094.59 90.6379 1091.8 88.8793 1090.09 86.5517C1088.39 84.2759 1087.51 81.7414 1087.51 79.0517C1087.51 76.8793 1087.97 74.9655 1088.9 73.3103C1089.83 71.6552 1091.08 70.2069 1092.63 69.069C1094.18 67.8793 1095.94 67 1098.01 66.3793C1100.08 65.7586 1102.25 65.5 1104.52 65.5C1105.66 65.5 1106.85 65.5517 1107.99 65.7069C1109.18 65.8621 1110.26 66.069 1111.35 66.2759C1112.39 66.5345 1113.37 66.7931 1114.3 67.1034C1115.23 67.4138 1115.95 67.7241 1116.47 68.0345C1117.2 68.4483 1117.71 68.8621 1118.02 69.3276C1118.33 69.7414 1118.49 70.3103 1118.49 71.0345V73.4655C1118.49 74.5517 1118.08 75.1207 1117.3 75.1207C1116.89 75.1207 1116.21 74.9138 1115.33 74.5C1112.39 73.1552 1109.08 72.4828 1105.4 72.4828C1102.45 72.4828 1100.13 72.9483 1098.52 73.931C1096.92 74.9138 1096.09 76.4138 1096.09 78.5345C1096.09 79.9828 1096.61 81.2241 1097.64 82.2069C1098.68 83.1897 1100.59 84.1724 1103.33 85.0517L1110.68 87.3793C1114.4 88.569 1117.09 90.2241 1118.7 92.3448C1120.3 94.4655 1121.08 96.8966 1121.08 99.5862C1121.08 101.81 1120.61 103.828 1119.73 105.586C1118.8 107.345 1117.56 108.897 1115.95 110.138C1114.35 111.431 1112.44 112.362 1110.21 113.034C1107.89 113.759 1105.45 114.121 1102.82 114.121Z" fill="#252F3E"/>
<path fill-rule="evenodd" clip-rule="evenodd" d="M1112.59 139.259C1095.58 151.828 1070.85 158.5 1049.59 158.5C1019.8 158.5 992.955 147.483 972.679 129.172C971.076 127.724 972.524 125.759 974.438 126.896C996.369 139.621 1023.42 147.328 1051.4 147.328C1070.28 147.328 1091.02 143.396 1110.11 135.328C1112.96 134.034 1115.39 137.19 1112.59 139.259Z" fill="#FF9900"/>
<path fill-rule="evenodd" clip-rule="evenodd" d="M1119.68 131.19C1117.51 128.397 1105.3 129.845 1099.76 130.517C1098.11 130.724 1097.85 129.276 1099.35 128.19C1109.08 121.362 1125.06 123.328 1126.92 125.603C1128.78 127.931 1126.4 143.914 1117.3 151.569C1115.9 152.759 1114.56 152.138 1115.18 150.586C1117.25 145.466 1121.85 133.931 1119.68 131.19Z" fill="#FF9900"/>
<path d="M1226.6 47.225H1267.29L1225.05 172.361C1224.62 173.647 1223.79 174.764 1222.69 175.556C1221.59 176.347 1220.26 176.773 1218.91 176.773H1187.24C1186.21 176.774 1185.2 176.529 1184.29 176.059C1183.37 175.59 1182.58 174.91 1181.98 174.075C1181.38 173.239 1180.99 172.273 1180.84 171.256C1180.68 170.239 1180.78 169.201 1181.11 168.227L1220.45 51.6375C1220.89 50.3511 1221.71 49.2332 1222.82 48.4413C1223.92 47.6494 1225.24 47.225 1226.6 47.225Z" fill="url(#paint0_linear_708_6383)"/>
<path d="M1285.72 131.158H1221.21C1220.61 131.157 1220.02 131.337 1219.52 131.674C1219.03 132.011 1218.65 132.49 1218.43 133.048C1218.2 133.606 1218.16 134.217 1218.29 134.802C1218.42 135.387 1218.73 135.919 1219.17 136.328L1260.62 175.022C1261.83 176.148 1263.42 176.774 1265.07 176.773H1301.6L1285.72 131.158Z" fill="#0078D4"/>
<path d="M1226.6 47.2249C1225.23 47.2196 1223.89 47.6533 1222.78 48.4627C1221.67 49.272 1220.85 50.4145 1220.44 51.7233L1181.15 168.12C1180.8 169.098 1180.69 170.146 1180.83 171.175C1180.97 172.205 1181.36 173.185 1181.96 174.034C1182.56 174.883 1183.35 175.575 1184.27 176.052C1185.2 176.529 1186.22 176.776 1187.26 176.773H1219.74C1220.95 176.557 1222.08 176.024 1223.02 175.228C1223.95 174.432 1224.66 173.401 1225.07 172.242L1232.9 149.153L1260.89 175.255C1262.06 176.225 1263.53 176.761 1265.05 176.773H1301.45L1285.48 131.158L1238.95 131.169L1267.43 47.2249H1226.6Z" fill="url(#paint1_linear_708_6383)"/>
<path d="M1278.56 51.6313C1278.13 50.347 1277.31 49.231 1276.2 48.4405C1275.1 47.65 1273.78 47.2249 1272.43 47.2251H1227.08C1228.44 47.2252 1229.76 47.6504 1230.86 48.4408C1231.96 49.2313 1232.79 50.3472 1233.22 51.6313L1272.57 168.225C1272.9 169.2 1272.99 170.238 1272.84 171.256C1272.69 172.273 1272.3 173.239 1271.7 174.075C1271.1 174.91 1270.31 175.591 1269.39 176.061C1268.48 176.53 1267.46 176.775 1266.43 176.775H1311.78C1312.81 176.775 1313.82 176.53 1314.73 176.06C1315.65 175.59 1316.44 174.91 1317.04 174.074C1317.64 173.239 1318.03 172.272 1318.18 171.255C1318.33 170.238 1318.24 169.199 1317.91 168.225L1278.56 51.6313Z" fill="url(#paint2_linear_708_6383)"/>
<path d="M1464.15 85.6062H1468.61L1481.3 72.9152L1481.92 67.5271C1474.65 61.1102 1465.86 56.6526 1456.39 54.5753C1446.92 52.4981 1437.08 52.8699 1427.79 55.6555C1418.5 58.4411 1410.07 63.5486 1403.31 70.4955C1396.54 77.4424 1391.66 85.9994 1389.12 95.3582C1390.53 94.7787 1392.1 94.6847 1393.57 95.091L1418.96 90.9052C1418.96 90.9052 1420.25 88.7678 1420.92 88.9014C1426.35 82.9284 1433.87 79.2602 1441.92 78.6476C1449.98 78.0351 1457.96 80.5244 1464.24 85.6062H1464.15Z" fill="#EA4335"/>
<path d="M1499.38 95.3588C1496.46 84.6166 1490.47 74.9595 1482.14 67.5723L1464.33 85.3842C1468.04 88.4174 1471.02 92.2539 1473.03 96.6045C1475.05 100.955 1476.05 105.706 1475.95 110.499V113.661C1478.04 113.661 1480.1 114.071 1482.02 114.867C1483.94 115.664 1485.69 116.832 1487.16 118.304C1488.64 119.776 1489.8 121.523 1490.6 123.447C1491.4 125.37 1491.81 127.431 1491.81 129.513C1491.81 131.595 1491.4 133.656 1490.6 135.58C1489.8 137.503 1488.64 139.251 1487.16 140.723C1485.69 142.195 1483.94 143.362 1482.02 144.159C1480.1 144.956 1478.04 145.366 1475.95 145.366H1444.25L1441.09 148.572V167.586L1444.25 170.748H1475.95C1484.81 170.817 1493.45 168.034 1500.6 162.811C1507.75 157.589 1513.03 150.204 1515.65 141.749C1518.28 133.294 1518.12 124.217 1515.18 115.863C1512.25 107.508 1506.71 100.319 1499.38 95.3588Z" fill="#4285F4"/>
<path d="M1412.5 170.569H1444.2V145.187H1412.5C1410.24 145.186 1408.01 144.7 1405.95 143.762L1401.5 145.142L1388.72 157.833L1387.61 162.286C1394.77 167.698 1403.52 170.608 1412.5 170.569Z" fill="#34A853"/>
<path d="M1412.5 88.2339C1403.91 88.2852 1395.55 91.0184 1388.59 96.0516C1381.62 101.085 1376.41 108.167 1373.67 116.308C1370.92 124.45 1370.79 133.244 1373.29 141.463C1375.79 149.683 1380.8 156.916 1387.61 162.153L1406 143.762C1403.66 142.707 1401.61 141.099 1400.03 139.079C1398.45 137.059 1397.39 134.685 1396.93 132.162C1396.47 129.639 1396.63 127.042 1397.39 124.594C1398.15 122.146 1399.5 119.92 1401.31 118.106C1403.13 116.293 1405.35 114.947 1407.8 114.183C1410.25 113.419 1412.85 113.26 1415.37 113.721C1417.89 114.181 1420.27 115.247 1422.29 116.826C1424.31 118.406 1425.91 120.452 1426.97 122.789L1445.36 104.398C1441.5 99.3519 1436.53 95.2669 1430.82 92.4628C1425.12 89.6586 1418.85 88.2113 1412.5 88.2339Z" fill="#FBBC05"/>
<g clip-path="url(#clip2_708_6383)">
<path d="M1584.11 168.615H1607.21L1623.39 137.782L1612.19 116.453L1584.11 168.615ZM1709.71 115.582L1697.09 139.632L1711.87 168.262L1724.51 144.112L1709.71 115.582ZM1705.88 108.218L1678.92 56.3095L1665.62 79.5796L1693.23 132.296L1705.88 108.218ZM1663.89 139.959L1678.92 168.597H1704.56L1676.69 115.518L1663.89 139.959ZM1608.36 109.125L1595.79 85.0571L1579.74 115.691L1592.07 139.378L1608.36 109.125ZM1575.98 122.982L1564.51 145.463L1577.14 168.216L1588.33 146.733L1575.98 122.982ZM1661.36 86.4989L1647.99 109.923L1660.06 132.676L1672.88 108.236L1661.36 86.4989ZM1610.93 55.3845L1599.4 77.657L1644.26 162.802L1656.23 140.013L1633.56 96.8371L1610.93 55.3845Z" fill="url(#paint3_linear_708_6383)"/>
</g>
<defs>
<linearGradient id="paint0_linear_708_6383" x1="1241.43" y1="56.825" x2="1199.18" y2="181.647" gradientUnits="userSpaceOnUse">
<stop stop-color="#114A8B"/>
<stop offset="1" stop-color="#0669BC"/>
</linearGradient>
<linearGradient id="paint1_linear_708_6383" x1="1254.63" y1="114.995" x2="1244.85" y2="118.3" gradientUnits="userSpaceOnUse">
<stop stop-opacity="0.3"/>
<stop offset="0.071" stop-opacity="0.2"/>
<stop offset="0.321" stop-opacity="0.1"/>
<stop offset="0.623" stop-opacity="0.05"/>
<stop offset="1" stop-opacity="0"/>
</linearGradient>
<linearGradient id="paint2_linear_708_6383" x1="1249.25" y1="53.1845" x2="1295.63" y2="176.749" gradientUnits="userSpaceOnUse">
<stop stop-color="#3CCBF4"/>
<stop offset="1" stop-color="#2892DF"/>
</linearGradient>
<linearGradient id="paint3_linear_708_6383" x1="1644.54" y1="57.1801" x2="1644.54" y2="207.375" gradientUnits="userSpaceOnUse">
<stop stop-color="#F2C144"/>
<stop offset="0.24" stop-color="#F1A03B"/>
<stop offset="0.57" stop-color="#F17A31"/>
<stop offset="0.84" stop-color="#F0632A"/>
<stop offset="1" stop-color="#F05A28"/>
</linearGradient>
<clipPath id="clip0_708_6383">
<rect width="200" height="107.314" fill="white" transform="translate(476.99 58.343)"/>
</clipPath>
<clipPath id="clip1_708_6383">
<rect width="201" height="130" fill="white" transform="translate(723.99 47)"/>
</clipPath>
<clipPath id="clip2_708_6383">
<rect width="160" height="160" fill="white" transform="translate(1564.51 32)"/>
</clipPath>
</defs>
</svg>
