<svg width="1571" height="194" viewBox="0 0 1571 194" fill="none" xmlns="http://www.w3.org/2000/svg">
<rect width="1571" height="194" fill="white"/>
<g clip-path="url(#clip0_279_624)">
<path d="M722.479 153.065C720.08 151.747 718.246 149.863 716.929 147.415C715.659 145.014 715 142.189 715 138.987C715 135.785 715.659 133.007 716.929 130.606C718.199 128.205 720.08 126.321 722.479 125.003C724.878 123.685 727.701 123.025 730.946 123.025C732.969 123.025 734.945 123.355 736.873 123.967C738.802 124.579 740.354 125.427 741.53 126.463L738.99 132.16C736.403 130.371 733.769 129.476 731.088 129.476C728.547 129.476 726.619 130.276 725.255 131.877C723.89 133.478 723.232 135.832 723.232 139.034C723.232 142.189 723.89 144.59 725.255 146.191C726.619 147.792 728.547 148.592 731.088 148.592C733.769 148.592 736.403 147.698 738.99 145.908L741.53 151.653C740.307 152.689 738.755 153.536 736.873 154.148C734.945 154.76 733.016 155.09 730.946 155.09C727.701 155.043 724.878 154.384 722.479 153.065Z" fill="#3CC48F"/>
<path d="M748.68 153.63C746.846 152.689 745.481 151.37 744.494 149.675C743.506 147.98 742.988 145.956 742.988 143.648C742.988 141.341 743.506 139.317 744.494 137.622C745.481 135.927 746.893 134.608 748.68 133.714C750.468 132.819 752.584 132.348 755.03 132.348C757.429 132.348 759.546 132.819 761.381 133.714C763.168 134.608 764.579 135.927 765.567 137.622C766.555 139.317 767.073 141.341 767.073 143.648C767.073 145.956 766.555 147.98 765.567 149.675C764.579 151.37 763.168 152.736 761.381 153.63C759.593 154.572 757.476 155.043 755.03 155.043C752.584 154.996 750.515 154.572 748.68 153.63ZM759.217 143.601C759.217 139.929 757.806 138.092 755.03 138.092C752.208 138.092 750.844 139.929 750.844 143.601C750.844 147.274 752.255 149.11 755.03 149.11C757.806 149.11 759.217 147.274 759.217 143.601Z" fill="#3CC48F"/>
<path d="M787.018 138.752L782.737 139.175C781.044 139.364 779.821 139.834 779.162 140.541C778.504 141.294 778.127 142.33 778.127 143.695V154.666H770.225V132.866H777.704V136.633C778.221 135.314 779.021 134.279 780.197 133.572C781.326 132.866 782.737 132.489 784.384 132.395L786.547 132.207L787.018 138.752Z" fill="#3CC48F"/>
<path d="M806.821 134.702C808.467 136.303 809.267 138.752 809.267 142.095V154.666H801.881V151.606C801.458 152.689 800.752 153.489 799.812 154.101C798.824 154.713 797.648 154.996 796.331 154.996C794.825 154.996 793.461 154.713 792.238 154.101C791.015 153.489 790.074 152.641 789.369 151.559C788.663 150.476 788.334 149.251 788.334 147.886C788.334 146.332 788.757 145.061 789.557 144.119C790.357 143.178 791.674 142.518 793.414 142.095C795.202 141.671 797.601 141.482 800.611 141.482H801.787V140.965C801.787 139.882 801.552 139.128 801.035 138.705C800.517 138.281 799.623 138.045 798.353 138.045C797.366 138.045 796.19 138.234 794.872 138.657C793.555 139.034 792.332 139.552 791.156 140.164L789.181 134.985C790.451 134.231 792.05 133.572 793.932 133.054C795.86 132.536 797.601 132.301 799.2 132.301C802.634 132.301 805.174 133.101 806.821 134.702ZM800.752 148.592C801.411 147.839 801.787 146.85 801.787 145.673V145.155H801.082C799.2 145.155 797.836 145.343 797.036 145.673C796.237 146.003 795.86 146.568 795.86 147.368C795.86 148.027 796.096 148.592 796.519 149.063C796.942 149.487 797.507 149.722 798.165 149.722C799.2 149.722 800.094 149.346 800.752 148.592Z" fill="#3CC48F"/>
<path d="M812.936 154.666V123.402H820.838V154.666H812.936Z" fill="#3CC48F"/>
<path d="M829.729 153.63C827.894 152.689 826.53 151.37 825.542 149.675C824.555 147.98 824.037 145.956 824.037 143.648C824.037 141.341 824.555 139.317 825.542 137.622C826.53 135.927 827.941 134.608 829.729 133.714C831.516 132.819 833.633 132.348 836.079 132.348C838.478 132.348 840.595 132.819 842.43 133.714C844.217 134.608 845.628 135.927 846.616 137.622C847.604 139.317 848.121 141.341 848.121 143.648C848.121 145.956 847.604 147.98 846.616 149.675C845.628 151.37 844.217 152.736 842.43 153.63C840.642 154.572 838.525 155.043 836.079 155.043C833.68 154.996 831.563 154.572 829.729 153.63ZM840.266 143.601C840.266 139.929 838.855 138.092 836.079 138.092C833.257 138.092 831.893 139.929 831.893 143.601C831.893 147.274 833.304 149.11 836.079 149.11C838.855 149.11 840.266 147.274 840.266 143.601Z" fill="#3CC48F"/>
<path d="M875.169 132.866V152.029C875.169 155.655 874.087 158.386 871.97 160.222C869.806 162.105 866.655 163 862.468 163C860.492 163 858.564 162.765 856.729 162.294C854.848 161.823 853.248 161.211 851.884 160.363L853.86 154.996C855.224 155.702 856.635 156.267 858.093 156.644C859.552 157.02 860.916 157.209 862.233 157.209C863.973 157.209 865.29 156.832 866.09 156.079C866.937 155.325 867.36 154.148 867.36 152.5V150.805C866.702 151.794 865.761 152.547 864.585 153.112C863.362 153.677 862.045 153.96 860.634 153.96C858.752 153.96 857.058 153.536 855.6 152.641C854.142 151.747 852.966 150.476 852.166 148.828C851.32 147.18 850.943 145.296 850.943 143.13C850.943 140.965 851.367 139.081 852.166 137.433C853.013 135.785 854.142 134.514 855.6 133.619C857.058 132.725 858.752 132.254 860.634 132.254C862.092 132.254 863.409 132.536 864.632 133.149C865.855 133.761 866.796 134.561 867.407 135.597V132.819H875.169V132.866ZM866.278 146.85C867.031 145.955 867.407 144.778 867.407 143.225C867.407 141.671 867.031 140.447 866.278 139.552C865.526 138.657 864.444 138.234 863.033 138.234C861.668 138.234 860.634 138.657 859.834 139.552C859.081 140.447 858.705 141.671 858.705 143.272C858.705 144.825 859.081 146.003 859.881 146.897C860.681 147.792 861.715 148.216 863.033 148.216C864.444 148.121 865.526 147.698 866.278 146.85Z" fill="#3CC48F"/>
<path d="M878.697 121.942H886.929V129.099H878.697V121.942ZM878.838 154.666V132.866H886.741V154.666H878.838Z" fill="#3CC48F"/>
<path d="M906.781 143.413L916.047 154.666H906.828L902.265 148.922L897.702 154.666H888.529L897.796 143.413L889.047 132.866H898.314L902.218 137.998L906.216 132.866H915.483L906.781 143.413Z" fill="#3CC48F"/>
<path d="M815.523 95.2455C831.786 95.2455 844.97 82.0492 844.97 65.7707C844.97 49.4922 831.786 36.2959 815.523 36.2959C799.26 36.2959 786.076 49.4922 786.076 65.7707C786.076 82.0492 799.26 95.2455 815.523 95.2455Z" fill="#3CC48F"/>
<path d="M815.523 98.4946C797.46 98.4946 782.783 83.8043 782.783 65.7239C782.783 47.6435 797.46 32.9531 815.523 32.9531C833.586 32.9531 848.262 47.6435 848.262 65.7239C848.215 83.8043 833.539 98.4946 815.523 98.4946ZM815.523 39.4979C801.082 39.4979 789.322 51.269 789.322 65.7239C789.322 80.1788 801.082 91.9499 815.523 91.9499C829.964 91.9499 841.724 80.1788 841.724 65.7239C841.724 51.269 829.964 39.4979 815.523 39.4979Z" fill="#AEFFDC"/>
</g>
<path d="M131.001 36C93.4465 36 63 66.4434 63 103.999C63 141.554 93.4465 172 131.001 172C168.555 172 199 141.554 199 103.999C199 66.4434 168.554 36 131.001 36ZM131.001 163.269C120.316 163.269 111.653 156.131 111.653 147.329H150.348C150.348 156.13 141.685 163.269 131.001 163.269ZM162.957 142.05H99.0409V130.46H162.958L162.957 142.05ZM162.727 124.495H99.2233C99.0121 124.251 98.7961 124.011 98.5921 123.764C92.0497 115.82 90.5089 111.672 89.0125 107.446C88.9873 107.307 96.9457 109.072 102.589 110.342C102.589 110.342 105.493 111.014 109.739 111.788C105.663 107.009 103.242 100.935 103.242 94.7256C103.242 81.0945 113.697 69.1831 109.925 59.5553C113.596 59.8541 117.522 67.3026 117.787 78.9489C121.69 73.556 123.323 63.7074 123.323 57.6688C123.323 51.4167 127.443 44.1542 131.563 43.9058C127.89 49.9599 132.515 55.15 136.626 68.0251C138.168 72.8612 137.971 80.9997 139.162 86.161C139.557 75.4412 141.4 59.8001 148.2 54.4C145.2 61.2005 148.644 69.7099 151 73.8008C154.8 80.4009 157.104 85.4014 157.104 94.8588C157.104 101.2 154.763 107.17 150.814 111.837C155.304 110.994 158.405 110.235 158.405 110.235L172.988 107.389C172.989 107.388 170.87 116.103 162.727 124.495Z" fill="#E6522C"/>
<g clip-path="url(#clip1_279_624)">
<path d="M545.761 49V105.825H586.007C590.404 105.825 594.621 104.078 597.729 100.969C600.838 97.8596 602.585 93.6428 602.585 89.246V49H545.761ZM590.054 84.82H592.175V86.941H590.054V84.82ZM589.387 75.689H592.833V79.136H589.387V75.689ZM588.857 66.689H593.364V71.2H588.857V66.689ZM581.581 93.289H583.7V95.41H581.579L581.581 93.289ZM580.918 84.05H584.365V87.5H580.918V84.05ZM580.388 75.159H584.9V79.666H580.393L580.388 75.159ZM580.918 70.667V67.221H584.365V70.667H580.918ZM564.644 93.289H566.765V95.41H564.644V93.289ZM563.981 84.158H567.428V87.6H563.981V84.158ZM564.644 78.473V76.352H566.765V78.473H564.644ZM563.981 67.221H567.428V70.667H563.981V67.221ZM556.175 93.289H558.3V95.41H556.175V93.289ZM556.175 84.82H558.3V86.941H556.175V84.82ZM555.513 75.689H558.959V79.136H555.513V75.689ZM554.982 66.689H559.49V71.2H554.982V66.689ZM553 56.241H595.342V64.71H578.407V98.584H569.939V64.71H553V56.241ZM470 112.485H503.223V119.146H490.278V155.637H482.945V119.146H470V112.485ZM516.745 125.43H535.728V155.637H528.7V132.091H516.745V155.637H509.718V112.485H516.745V125.43ZM545.8 131.594V125.43H567.93V155.637H554.119C547.398 155.637 543.147 151.817 543.147 146.019C543.147 140.221 547.709 136.4 554.119 136.4H561.025V131.594H545.8ZM561.028 149.594V142.446H554C551.285 142.446 549.5 143.555 549.5 146.019C549.5 148.483 551.287 149.593 554 149.593L561.028 149.594ZM576.575 125.43H602.585V155.637H595.558V132.091H583.6V155.637H576.573L576.575 125.43ZM625.293 124.692C628.428 124.649 631.505 125.538 634.133 127.248C636.762 128.957 638.822 131.41 640.054 134.293C641.285 137.177 641.631 140.361 641.048 143.442C640.466 146.522 638.98 149.36 636.781 151.595C634.581 153.829 631.767 155.359 628.696 155.991C625.625 156.622 622.435 156.326 619.533 155.14C616.63 153.955 614.146 151.933 612.395 149.332C610.644 146.731 609.706 143.668 609.7 140.533C609.651 138.46 610.02 136.399 610.783 134.472C611.546 132.544 612.689 130.789 614.143 129.312C615.598 127.834 617.334 126.664 619.249 125.871C621.165 125.077 623.22 124.676 625.293 124.692ZM625.293 149.965C630.162 149.965 633.675 146.019 633.675 140.533C633.675 135.047 630.162 131.102 625.293 131.102C620.359 131.102 616.845 135.047 616.845 140.533C616.845 146.019 620.359 149.965 625.293 149.965ZM655.76 143.244C650.093 141.828 646.575 138.932 646.575 133.692C646.575 128.08 651.263 124.692 657.612 124.692C659.745 124.676 661.856 125.12 663.802 125.992C665.748 126.864 667.483 128.145 668.891 129.747L664.514 134.555C663.724 133.397 662.669 132.446 661.436 131.781C660.203 131.115 658.828 130.755 657.427 130.731C654.837 130.731 653.296 132.031 653.296 133.567C653.296 135.047 654.596 136.036 656.257 136.402L661 137.512C666.18 138.746 670 141.643 670 146.943C670 152.183 665.934 156.314 657.984 156.314C655.574 156.4 653.177 155.915 650.991 154.897C648.805 153.879 646.89 152.357 645.405 150.457L649.842 145.899C650.829 147.277 652.136 148.396 653.65 149.158C655.164 149.92 656.841 150.304 658.536 150.276C662.175 150.276 663.219 148.67 663.219 147.189C663.219 145.899 662.419 144.91 659.771 144.233L655.76 143.244Z" fill="#6D41FF"/>
</g>
<path d="M244 117.956H248.47C248.953 117.956 249.347 118.066 249.654 118.285C249.961 118.504 250.18 118.794 250.311 119.156L254.946 131.976C255.154 132.535 255.365 133.143 255.579 133.8C255.793 134.458 255.992 135.148 256.179 135.871C256.332 135.148 256.51 134.458 256.713 133.8C256.916 133.143 257.116 132.535 257.313 131.976L261.915 119.156C262.024 118.849 262.238 118.573 262.556 118.326C262.874 118.079 263.263 117.956 263.723 117.956H268.226L258.628 141.903H253.598L244 117.956Z" fill="#171514"/>
<path d="M279.567 141.903H273.979V117.956H279.567V141.903Z" fill="#171514"/>
<path d="M303.381 135.707C303.513 135.707 303.644 135.732 303.776 135.781C303.907 135.83 304.033 135.915 304.154 136.036L306.356 138.353C305.392 139.613 304.184 140.564 302.732 141.205C301.28 141.845 299.563 142.166 297.58 142.166C295.761 142.166 294.131 141.857 292.69 141.237C291.249 140.619 290.027 139.764 289.025 138.673C288.022 137.583 287.252 136.29 286.715 134.795C286.179 133.299 285.91 131.675 285.91 129.921C285.91 128.136 286.217 126.494 286.831 124.999C287.444 123.503 288.301 122.213 289.403 121.128C290.504 120.044 291.821 119.2 293.356 118.597C294.889 117.995 296.582 117.693 298.434 117.693C299.332 117.693 300.179 117.773 300.973 117.932C301.768 118.09 302.51 118.309 303.2 118.589C303.891 118.868 304.526 119.203 305.107 119.592C305.688 119.981 306.203 120.411 306.652 120.882L304.778 123.396C304.657 123.55 304.515 123.69 304.351 123.816C304.187 123.942 303.957 124.004 303.661 124.004C303.463 124.004 303.277 123.961 303.102 123.873C302.927 123.785 302.74 123.679 302.543 123.552C302.346 123.427 302.129 123.29 301.894 123.142C301.658 122.994 301.379 122.857 301.056 122.731C300.732 122.605 300.354 122.498 299.921 122.41C299.489 122.323 298.982 122.279 298.401 122.279C297.393 122.279 296.473 122.457 295.64 122.813C294.807 123.169 294.092 123.679 293.495 124.341C292.898 125.005 292.432 125.807 292.098 126.749C291.764 127.692 291.597 128.749 291.597 129.921C291.597 131.149 291.764 132.239 292.098 133.192C292.432 134.145 292.887 134.948 293.462 135.6C294.038 136.252 294.709 136.748 295.476 137.087C296.243 137.427 297.064 137.597 297.941 137.597C298.445 137.597 298.905 137.572 299.322 137.523C299.738 137.474 300.124 137.389 300.48 137.268C300.836 137.148 301.176 136.992 301.499 136.8C301.822 136.608 302.149 136.37 302.477 136.085C302.609 135.975 302.751 135.885 302.905 135.813C303.058 135.742 303.217 135.707 303.381 135.707Z" fill="#171514"/>
<path d="M329.564 117.956V122.361H322.825V141.903H317.27V122.361H310.531V117.956H329.564Z" fill="#171514"/>
<path d="M352.113 129.921C352.113 128.738 351.959 127.672 351.653 126.725C351.346 125.777 350.905 124.974 350.33 124.317C349.754 123.659 349.05 123.155 348.218 122.805C347.385 122.454 346.437 122.279 345.374 122.279C344.3 122.279 343.344 122.454 342.506 122.805C341.668 123.155 340.961 123.659 340.386 124.317C339.811 124.974 339.369 125.777 339.063 126.725C338.756 127.672 338.603 128.738 338.603 129.921C338.603 131.116 338.756 132.187 339.063 133.135C339.369 134.082 339.811 134.885 340.386 135.542C340.961 136.2 341.668 136.701 342.506 137.046C343.344 137.392 344.3 137.564 345.374 137.564C346.437 137.564 347.385 137.392 348.218 137.046C349.05 136.701 349.754 136.2 350.33 135.542C350.905 134.885 351.346 134.082 351.653 133.135C351.959 132.187 352.113 131.116 352.113 129.921ZM357.8 129.921C357.8 131.653 357.501 133.264 356.904 134.753C356.307 136.244 355.466 137.539 354.381 138.64C353.296 139.742 351.989 140.605 350.461 141.229C348.933 141.854 347.237 142.166 345.374 142.166C343.511 142.166 341.813 141.854 340.279 141.229C338.745 140.605 337.433 139.742 336.343 138.64C335.252 137.539 334.409 136.244 333.812 134.753C333.214 133.264 332.916 131.653 332.916 129.921C332.916 128.19 333.214 126.579 333.812 125.089C334.409 123.599 335.252 122.306 336.343 121.21C337.433 120.115 338.745 119.255 340.279 118.63C341.813 118.005 343.511 117.693 345.374 117.693C347.237 117.693 348.933 118.008 350.461 118.638C351.989 119.268 353.296 120.131 354.381 121.227C355.466 122.323 356.307 123.616 356.904 125.106C357.501 126.596 357.8 128.201 357.8 129.921Z" fill="#171514"/>
<path d="M369.305 129.215H371.541C372.297 129.215 372.94 129.119 373.472 128.927C374.003 128.736 374.439 128.47 374.778 128.13C375.118 127.79 375.365 127.393 375.518 126.938C375.671 126.484 375.748 125.993 375.748 125.467C375.748 124.416 375.406 123.594 374.721 123.002C374.036 122.41 372.976 122.114 371.541 122.114H369.305V129.215ZM369.305 133.044V141.903H363.75V117.956H371.541C373.272 117.956 374.748 118.134 375.97 118.49C377.192 118.846 378.189 119.342 378.961 119.978C379.734 120.613 380.295 121.364 380.646 122.23C380.997 123.095 381.172 124.037 381.172 125.056C381.172 125.835 381.068 126.569 380.86 127.259C380.651 127.949 380.342 128.588 379.931 129.174C379.52 129.76 379.016 130.283 378.419 130.743C377.822 131.203 377.134 131.581 376.356 131.877C376.729 132.064 377.077 132.294 377.4 132.567C377.723 132.842 378.005 133.176 378.246 133.57L383.341 141.903H378.312C377.381 141.903 376.712 141.553 376.307 140.851L372.329 133.899C372.154 133.592 371.949 133.373 371.713 133.242C371.478 133.11 371.146 133.044 370.719 133.044H369.305Z" fill="#171514"/>
<path d="M394.977 141.903H389.389V117.956H394.977V141.903Z" fill="#171514"/>
<path d="M409.606 132.749H416.147L413.945 126.19C413.803 125.774 413.635 125.284 413.444 124.72C413.252 124.155 413.063 123.544 412.877 122.887C412.701 123.556 412.52 124.174 412.334 124.744C412.148 125.314 411.973 125.807 411.808 126.223L409.606 132.749ZM424.99 141.903H420.684C420.201 141.903 419.804 141.791 419.492 141.566C419.18 141.342 418.963 141.054 418.843 140.703L417.43 136.529H408.324L406.91 140.703C406.801 141.01 406.587 141.287 406.27 141.533C405.952 141.78 405.563 141.903 405.103 141.903H400.764L410.033 117.956H415.72L424.99 141.903Z" fill="#171514"/>
<path d="M296.884 152.791C296.776 152.828 296.677 152.933 296.587 153.105L291.131 162.995C291.034 163.174 290.944 163.363 290.862 163.561C290.779 163.76 290.701 163.96 290.626 164.162C290.551 163.96 290.471 163.762 290.385 163.567C290.299 163.373 290.211 163.185 290.121 163.006L284.564 153.105C284.467 152.933 284.366 152.828 284.261 152.791C284.156 152.753 284.007 152.735 283.812 152.735H282.207V168.821H284.115V157C284.115 156.664 284.093 156.297 284.048 155.9L289.683 166.003C289.855 166.34 290.117 166.508 290.469 166.508H290.783C291.135 166.508 291.397 166.34 291.569 166.003L297.092 155.945C297.077 156.132 297.064 156.315 297.053 156.495C297.041 156.675 297.036 156.843 297.036 157V168.821H298.944V152.735H297.339C297.144 152.735 296.992 152.753 296.884 152.791Z" fill="#171514"/>
<path d="M307.475 161.558H313.738V159.851H307.475V154.508H315.209V152.735H305.297V168.821H315.209L315.22 167.047H307.475V161.558Z" fill="#171514"/>
<path d="M318.791 154.564H324.011V168.821H326.177V154.564H331.386V152.735H318.791V154.564Z" fill="#171514"/>
<path d="M340.467 160.525H338.177V154.452H340.556C341.814 154.452 342.756 154.695 343.385 155.182C344.014 155.668 344.328 156.391 344.328 157.348C344.328 157.82 344.245 158.25 344.081 158.639C343.916 159.028 343.671 159.363 343.346 159.644C343.02 159.925 342.616 160.142 342.133 160.295C341.651 160.448 341.095 160.525 340.467 160.525ZM342.487 161.749C343.108 161.607 343.664 161.397 344.154 161.12C344.644 160.843 345.06 160.508 345.4 160.115C345.741 159.722 346 159.279 346.18 158.785C346.36 158.291 346.45 157.76 346.45 157.191C346.45 156.51 346.333 155.895 346.101 155.345C345.87 154.794 345.512 154.325 345.029 153.936C344.547 153.547 343.935 153.249 343.194 153.043C342.453 152.837 341.574 152.735 340.556 152.735H336.01V168.821H338.177V162.108H339.827C340.133 162.108 340.36 162.147 340.506 162.226C340.652 162.304 340.788 162.433 340.915 162.613L345.091 168.36C345.278 168.667 345.57 168.821 345.967 168.821H347.897L343.205 162.433C343.003 162.134 342.764 161.906 342.487 161.749Z" fill="#171514"/>
<path d="M352.32 168.821H354.498V152.735H352.32V168.821Z" fill="#171514"/>
<path d="M371.718 165.498C371.591 165.498 371.464 165.554 371.336 165.666C371.06 165.921 370.781 166.14 370.5 166.323C370.22 166.506 369.916 166.658 369.591 166.777C369.266 166.897 368.91 166.985 368.524 167.041C368.139 167.097 367.707 167.126 367.228 167.126C366.442 167.126 365.711 166.984 365.034 166.699C364.356 166.414 363.769 166.001 363.271 165.459C362.773 164.916 362.38 164.252 362.092 163.466C361.804 162.68 361.66 161.786 361.66 160.783C361.66 159.795 361.799 158.908 362.076 158.123C362.352 157.337 362.74 156.671 363.237 156.125C363.735 155.578 364.328 155.161 365.016 154.873C365.705 154.585 366.464 154.441 367.295 154.441C367.984 154.441 368.564 154.514 369.035 154.66C369.507 154.805 369.899 154.968 370.214 155.148C370.528 155.328 370.783 155.49 370.977 155.636C371.172 155.782 371.336 155.855 371.471 155.855C371.591 155.855 371.686 155.831 371.758 155.782C371.829 155.734 371.887 155.672 371.931 155.597L372.65 154.598C371.983 153.97 371.213 153.472 370.337 153.105C369.462 152.738 368.451 152.555 367.306 152.555C366.139 152.555 365.073 152.755 364.107 153.156C363.142 153.556 362.313 154.119 361.621 154.845C360.929 155.571 360.392 156.439 360.01 157.449C359.628 158.459 359.438 159.571 359.438 160.783C359.438 161.995 359.621 163.107 359.988 164.117C360.354 165.127 360.871 165.994 361.537 166.716C362.202 167.438 363.007 167.999 363.95 168.399C364.893 168.8 365.941 169 367.093 169C368.425 169 369.561 168.787 370.5 168.36C371.439 167.934 372.238 167.339 372.897 166.575L372.032 165.644C371.943 165.546 371.838 165.498 371.718 165.498Z" fill="#171514"/>
<path d="M386.451 162.254C386.23 161.797 385.938 161.412 385.575 161.097C385.212 160.783 384.801 160.523 384.34 160.317C383.88 160.111 383.409 159.926 382.926 159.762C382.443 159.597 381.972 159.438 381.511 159.285C381.051 159.131 380.639 158.95 380.276 158.74C379.913 158.531 379.622 158.278 379.401 157.982C379.18 157.687 379.07 157.314 379.07 156.865C379.07 156.514 379.134 156.186 379.261 155.883C379.388 155.58 379.577 155.316 379.828 155.092C380.078 154.867 380.389 154.69 380.759 154.559C381.13 154.428 381.558 154.362 382.045 154.362C382.561 154.362 383 154.426 383.364 154.553C383.727 154.68 384.037 154.821 384.295 154.974C384.554 155.127 384.769 155.268 384.941 155.395C385.113 155.522 385.262 155.586 385.39 155.586C385.502 155.586 385.598 155.558 385.676 155.501C385.755 155.445 385.827 155.361 385.895 155.249L386.423 154.216C385.861 153.677 385.212 153.266 384.475 152.982C383.738 152.697 382.92 152.555 382.022 152.555C381.222 152.555 380.512 152.679 379.895 152.925C379.278 153.172 378.757 153.502 378.334 153.913C377.912 154.325 377.59 154.796 377.369 155.328C377.148 155.859 377.038 156.409 377.038 156.978C377.038 157.689 377.148 158.285 377.369 158.768C377.59 159.251 377.88 159.653 378.239 159.975C378.598 160.297 379.01 160.559 379.474 160.76C379.938 160.963 380.409 161.14 380.888 161.294C381.367 161.447 381.839 161.597 382.303 161.743C382.767 161.889 383.179 162.067 383.537 162.276C383.897 162.486 384.187 162.746 384.408 163.056C384.628 163.367 384.739 163.765 384.739 164.252C384.739 164.693 384.664 165.094 384.515 165.453C384.365 165.812 384.149 166.121 383.869 166.379C383.588 166.637 383.246 166.837 382.842 166.98C382.437 167.122 381.977 167.193 381.461 167.193C381.05 167.193 380.679 167.153 380.349 167.075C380.02 166.996 379.727 166.897 379.468 166.777C379.21 166.658 378.98 166.527 378.778 166.385C378.576 166.242 378.397 166.111 378.239 165.992C378.082 165.872 377.942 165.773 377.818 165.694C377.695 165.616 377.584 165.576 377.487 165.576C377.382 165.576 377.287 165.604 377.201 165.661C377.115 165.717 377.042 165.786 376.982 165.868L376.354 166.901C376.96 167.545 377.689 168.055 378.542 168.433C379.395 168.811 380.346 169 381.394 169C382.247 169 383.008 168.869 383.678 168.607C384.347 168.345 384.913 167.986 385.373 167.529C385.833 167.073 386.183 166.536 386.423 165.919C386.662 165.301 386.782 164.641 386.782 163.937C386.782 163.272 386.671 162.71 386.451 162.254Z" fill="#171514"/>
<path d="M330.394 72.9788C331.313 73.7628 332.858 74.3579 334.409 74.3782V74.3798C334.438 74.3803 334.466 74.379 334.495 74.379C334.523 74.379 334.552 74.3803 334.58 74.3798V74.3782C336.131 74.3579 337.677 73.7628 338.596 72.9788C343.441 68.8467 357.46 55.9954 357.46 55.9954C361.224 52.4946 350.754 49.0202 334.58 49.0004V48.9999C334.57 48.9999 334.559 48.9999 334.548 48.9999C334.53 48.9999 334.513 49.0002 334.495 49.0002C334.477 49.0002 334.459 48.9999 334.441 48.9999C334.431 48.9999 334.42 48.9999 334.409 48.9999V49.0004C318.235 49.0202 307.766 52.4946 311.529 55.9954C311.529 55.9954 325.549 68.8467 330.394 72.9788Z" fill="#171514"/>
<path d="M338.592 79.9379C337.673 80.7219 336.127 81.317 334.576 81.3373V81.3388C334.55 81.3391 334.524 81.3383 334.498 81.338C334.497 81.338 334.496 81.338 334.494 81.338C334.493 81.338 334.492 81.338 334.49 81.338C334.465 81.3383 334.439 81.3391 334.413 81.3388V81.3373C332.862 81.317 331.316 80.7219 330.397 79.9379C327.046 77.0794 315.22 66.3572 310.766 62.2942C310.766 64.9222 310.766 67.138 310.766 68.4992C310.766 69.1806 311.027 70.0854 311.49 70.5103C314.518 73.2867 326.196 83.9757 330.397 87.5589C331.316 88.3427 332.862 88.9378 334.413 88.958V88.9598C334.44 88.9604 334.467 88.9591 334.494 88.9591C334.522 88.9591 334.549 88.9604 334.576 88.9598V88.958C336.127 88.9378 337.673 88.3427 338.592 87.5589C342.793 83.9757 354.471 73.2867 357.499 70.5103C357.962 70.0854 358.223 69.1806 358.223 68.4992C358.223 67.138 358.223 64.9222 358.223 62.2942C353.769 66.3572 341.943 77.0794 338.592 79.9379Z" fill="#171514"/>
<path d="M338.592 94.5224C337.673 95.3062 336.127 95.9013 334.576 95.9216V95.9234C334.55 95.9236 334.524 95.9229 334.498 95.9226C334.497 95.9226 334.496 95.9226 334.494 95.9226C334.493 95.9226 334.492 95.9226 334.49 95.9226C334.465 95.9229 334.439 95.9236 334.413 95.9234V95.9216C332.862 95.9013 331.316 95.3062 330.397 94.5224C327.046 91.6639 315.22 80.9414 310.766 76.8787C310.766 79.5067 310.766 81.7223 310.766 83.0838C310.766 83.7651 311.027 84.6697 311.49 85.0951C314.518 87.871 326.196 98.5602 330.397 102.143C331.316 102.927 332.862 103.522 334.413 103.543V103.544C334.44 103.545 334.467 103.544 334.494 103.544C334.522 103.544 334.549 103.545 334.576 103.544V103.543C336.127 103.522 337.673 102.927 338.592 102.143C342.793 98.5602 354.471 87.871 357.499 85.0951C357.962 84.6697 358.223 83.7651 358.223 83.0838C358.223 81.7223 358.223 79.5067 358.223 76.8787C353.769 80.9414 341.943 91.6639 338.592 94.5224Z" fill="#171514"/>
<path d="M1004.83 95.7759C1004.83 97.6897 1005.03 99.2414 1005.4 100.379C1005.81 101.517 1006.33 102.759 1007.05 104.103C1007.31 104.517 1007.41 104.931 1007.41 105.293C1007.41 105.81 1007.1 106.328 1006.43 106.845L1003.17 109.017C1002.71 109.328 1002.24 109.483 1001.83 109.483C1001.31 109.483 1000.79 109.224 1000.27 108.759C999.55 107.983 998.93 107.155 998.412 106.328C997.895 105.448 997.378 104.466 996.809 103.276C992.775 108.034 987.706 110.414 981.602 110.414C977.257 110.414 973.792 109.172 971.257 106.69C968.723 104.207 967.43 100.897 967.43 96.7586C967.43 92.3621 968.981 88.7931 972.137 86.1035C975.292 83.4138 979.481 82.069 984.809 82.069C986.568 82.069 988.378 82.2241 990.292 82.4828C992.206 82.7414 994.171 83.1552 996.24 83.6207V79.8448C996.24 75.9138 995.412 73.1724 993.809 71.569C992.154 69.9655 989.361 69.1897 985.378 69.1897C983.568 69.1897 981.706 69.3966 979.792 69.8621C977.878 70.3276 976.016 70.8966 974.206 71.6207C973.378 71.9828 972.757 72.1897 972.395 72.2931C972.033 72.3966 971.775 72.4483 971.568 72.4483C970.843 72.4483 970.481 71.931 970.481 70.8448V68.3103C970.481 67.4828 970.585 66.8621 970.843 66.5C971.102 66.1379 971.568 65.7759 972.292 65.4138C974.102 64.4828 976.275 63.7069 978.809 63.0862C981.343 62.4138 984.033 62.1034 986.878 62.1034C993.033 62.1034 997.533 63.5 1000.43 66.2931C1003.27 69.0862 1004.72 73.3276 1004.72 79.0172V95.7759H1004.83ZM983.826 103.638C985.533 103.638 987.292 103.328 989.154 102.707C991.016 102.086 992.671 100.948 994.068 99.3966C994.895 98.4138 995.516 97.3276 995.826 96.0862C996.137 94.8448 996.343 93.3448 996.343 91.5862V89.4138C994.843 89.0517 993.24 88.7414 991.585 88.5345C989.93 88.3276 988.326 88.2241 986.723 88.2241C983.257 88.2241 980.723 88.8966 979.016 90.2931C977.309 91.6897 976.481 93.6552 976.481 96.2414C976.481 98.6724 977.102 100.483 978.395 101.724C979.637 103.017 981.447 103.638 983.826 103.638ZM1025.36 109.224C1024.43 109.224 1023.81 109.069 1023.4 108.707C1022.98 108.397 1022.62 107.672 1022.31 106.69L1010.15 66.7069C1009.84 65.6724 1009.69 65 1009.69 64.6379C1009.69 63.8103 1010.1 63.3448 1010.93 63.3448H1016C1016.98 63.3448 1017.65 63.5 1018.02 63.8621C1018.43 64.1724 1018.74 64.8966 1019.05 65.8793L1027.74 100.121L1035.81 65.8793C1036.07 64.8448 1036.38 64.1724 1036.79 63.8621C1037.21 63.5517 1037.93 63.3448 1038.86 63.3448H1043C1043.98 63.3448 1044.65 63.5 1045.07 63.8621C1045.48 64.1724 1045.84 64.8966 1046.05 65.8793L1054.22 100.534L1063.17 65.8793C1063.48 64.8448 1063.84 64.1724 1064.21 63.8621C1064.62 63.5517 1065.29 63.3448 1066.22 63.3448H1071.03C1071.86 63.3448 1072.33 63.7586 1072.33 64.6379C1072.33 64.8966 1072.27 65.1552 1072.22 65.4655C1072.17 65.7759 1072.07 66.1897 1071.86 66.7586L1059.4 106.741C1059.08 107.776 1058.72 108.448 1058.31 108.759C1057.9 109.069 1057.22 109.276 1056.34 109.276H1051.9C1050.91 109.276 1050.24 109.121 1049.83 108.759C1049.41 108.397 1049.05 107.724 1048.84 106.69L1040.83 73.3276L1032.86 106.638C1032.6 107.672 1032.29 108.345 1031.88 108.707C1031.46 109.069 1030.74 109.224 1029.81 109.224H1025.36ZM1091.83 110.621C1089.14 110.621 1086.45 110.31 1083.86 109.69C1081.27 109.069 1079.26 108.397 1077.91 107.621C1077.08 107.155 1076.52 106.638 1076.31 106.172C1076.1 105.707 1076 105.19 1076 104.724V102.086C1076 101 1076.41 100.483 1077.19 100.483C1077.5 100.483 1077.81 100.534 1078.12 100.638C1078.43 100.741 1078.9 100.948 1079.41 101.155C1081.17 101.931 1083.08 102.552 1085.1 102.966C1087.17 103.379 1089.19 103.586 1091.26 103.586C1094.52 103.586 1097.05 103.017 1098.81 101.879C1100.57 100.741 1101.5 99.0862 1101.5 96.9655C1101.5 95.5172 1101.03 94.3276 1100.1 93.3448C1099.17 92.3621 1097.41 91.4828 1094.88 90.6552L1087.38 88.3276C1083.6 87.1379 1080.81 85.3793 1079.1 83.0517C1077.4 80.7759 1076.52 78.2414 1076.52 75.5517C1076.52 73.3793 1076.98 71.4655 1077.91 69.8103C1078.84 68.1552 1080.08 66.7069 1081.64 65.569C1083.19 64.3793 1084.95 63.5 1087.02 62.8793C1089.08 62.2586 1091.26 62 1093.53 62C1094.67 62 1095.86 62.0517 1097 62.2069C1098.19 62.3621 1099.27 62.569 1100.36 62.7759C1101.4 63.0345 1102.38 63.2931 1103.31 63.6034C1104.24 63.9138 1104.96 64.2241 1105.48 64.5345C1106.21 64.9483 1106.72 65.3621 1107.03 65.8276C1107.34 66.2414 1107.5 66.8103 1107.5 67.5345V69.9655C1107.5 71.0517 1107.08 71.6207 1106.31 71.6207C1105.9 71.6207 1105.22 71.4138 1104.34 71C1101.4 69.6552 1098.08 68.9828 1094.41 68.9828C1091.46 68.9828 1089.14 69.4483 1087.53 70.431C1085.93 71.4138 1085.1 72.9138 1085.1 75.0345C1085.1 76.4828 1085.62 77.7241 1086.65 78.7069C1087.69 79.6897 1089.6 80.6724 1092.34 81.5517L1099.69 83.8793C1103.41 85.069 1106.1 86.7241 1107.71 88.8448C1109.31 90.9655 1110.08 93.3966 1110.08 96.0862C1110.08 98.3103 1109.62 100.328 1108.74 102.086C1107.81 103.845 1106.57 105.397 1104.96 106.638C1103.36 107.931 1101.45 108.862 1099.22 109.534C1096.9 110.259 1094.46 110.621 1091.83 110.621Z" fill="#252F3E"/>
<path fill-rule="evenodd" clip-rule="evenodd" d="M1101.6 135.759C1084.59 148.328 1059.86 155 1038.6 155C1008.81 155 981.965 143.983 961.689 125.673C960.086 124.225 961.534 122.259 963.448 123.397C985.379 136.121 1012.43 143.828 1040.41 143.828C1059.29 143.828 1080.03 139.897 1099.12 131.828C1101.96 130.535 1104.4 133.69 1101.6 135.759Z" fill="#FF9900"/>
<path fill-rule="evenodd" clip-rule="evenodd" d="M1108.69 127.69C1106.52 124.897 1094.31 126.345 1088.77 127.017C1087.12 127.224 1086.86 125.776 1088.36 124.69C1098.08 117.862 1114.07 119.828 1115.93 122.104C1117.79 124.431 1115.41 140.414 1106.31 148.069C1104.91 149.259 1103.57 148.638 1104.19 147.086C1106.26 141.966 1110.86 130.431 1108.69 127.69Z" fill="#FF9900"/>
<path d="M1214.09 32.2252H1254.78L1212.54 157.361C1212.11 158.647 1211.28 159.764 1210.18 160.556C1209.08 161.347 1207.75 161.773 1206.4 161.774H1174.73C1173.7 161.774 1172.69 161.529 1171.78 161.06C1170.86 160.59 1170.07 159.91 1169.47 159.075C1168.87 158.24 1168.48 157.274 1168.33 156.257C1168.17 155.24 1168.27 154.201 1168.6 153.227L1207.94 36.6377C1208.38 35.3513 1209.2 34.2334 1210.31 33.4416C1211.41 32.6497 1212.73 32.2253 1214.09 32.2252Z" fill="url(#paint0_linear_279_624)"/>
<path d="M1273.21 116.158H1208.7C1208.1 116.157 1207.51 116.337 1207.01 116.674C1206.52 117.011 1206.14 117.49 1205.92 118.048C1205.7 118.606 1205.65 119.217 1205.78 119.802C1205.91 120.387 1206.22 120.919 1206.66 121.328L1248.11 160.022C1249.32 161.148 1250.91 161.774 1252.56 161.773H1289.09L1273.21 116.158Z" fill="#0078D4"/>
<path d="M1214.09 32.2251C1212.72 32.2199 1211.38 32.6536 1210.27 33.4629C1209.16 34.2722 1208.34 35.4147 1207.93 36.7236L1168.64 153.12C1168.29 154.098 1168.18 155.146 1168.32 156.176C1168.46 157.205 1168.85 158.186 1169.45 159.035C1170.05 159.883 1170.84 160.575 1171.76 161.052C1172.69 161.529 1173.71 161.776 1174.75 161.774H1207.23C1208.44 161.557 1209.57 161.024 1210.51 160.228C1211.44 159.432 1212.15 158.402 1212.56 157.242L1220.39 134.153L1248.38 160.255C1249.55 161.225 1251.02 161.761 1252.54 161.774H1288.94L1272.97 116.158L1226.44 116.169L1254.92 32.2251H1214.09Z" fill="url(#paint1_linear_279_624)"/>
<path d="M1266.05 36.6313C1265.62 35.347 1264.8 34.231 1263.69 33.4405C1262.59 32.65 1261.27 32.2249 1259.92 32.2251H1214.57C1215.93 32.2252 1217.25 32.6504 1218.35 33.4408C1219.45 34.2313 1220.28 35.3472 1220.71 36.6313L1260.06 153.225C1260.39 154.2 1260.48 155.238 1260.33 156.256C1260.18 157.273 1259.79 158.239 1259.19 159.075C1258.59 159.91 1257.8 160.591 1256.88 161.061C1255.97 161.53 1254.95 161.775 1253.92 161.775H1299.27C1300.3 161.775 1301.31 161.53 1302.22 161.06C1303.14 160.59 1303.93 159.91 1304.53 159.074C1305.13 158.239 1305.52 157.272 1305.67 156.255C1305.83 155.238 1305.73 154.199 1305.4 153.225L1266.05 36.6313Z" fill="url(#paint2_linear_279_624)"/>
<path d="M1449.64 70.355H1454.1L1466.79 57.664L1467.41 52.2759C1460.14 45.859 1451.36 41.4013 1441.88 39.3241C1432.41 37.2469 1422.57 37.6186 1413.28 40.4043C1403.99 43.1899 1395.56 48.2974 1388.8 55.2443C1382.03 62.1912 1377.15 70.7482 1374.61 80.107C1376.03 79.5275 1377.59 79.4335 1379.06 79.8398L1404.45 75.654C1404.45 75.654 1405.74 73.5166 1406.41 73.6501C1411.84 67.6772 1419.36 64.009 1427.41 63.3964C1435.47 62.7838 1443.45 65.2732 1449.73 70.355H1449.64Z" fill="#EA4335"/>
<path d="M1484.87 80.1073C1481.95 69.3651 1475.96 59.708 1467.63 52.3208L1449.82 70.1327C1453.53 73.1659 1456.51 77.0025 1458.52 81.353C1460.54 85.7036 1461.54 90.4545 1461.44 95.2475V98.4091C1463.53 98.4091 1465.59 98.8191 1467.51 99.6158C1469.43 100.412 1471.18 101.58 1472.65 103.052C1474.13 104.524 1475.29 106.272 1476.09 108.195C1476.89 110.118 1477.3 112.18 1477.3 114.262C1477.3 116.343 1476.89 118.405 1476.09 120.328C1475.29 122.251 1474.13 123.999 1472.65 125.471C1471.18 126.943 1469.43 128.111 1467.51 128.908C1465.59 129.704 1463.53 130.114 1461.44 130.114H1429.74L1426.58 133.32V152.335L1429.74 155.496H1461.44C1470.3 155.565 1478.94 152.782 1486.09 147.56C1493.24 142.337 1498.52 134.952 1501.14 126.497C1503.77 118.042 1503.61 108.966 1500.68 100.611C1497.74 92.2569 1492.2 85.0677 1484.87 80.1073Z" fill="#4285F4"/>
<path d="M1397.99 155.318H1429.69V129.936H1397.99C1395.73 129.935 1393.5 129.449 1391.44 128.511L1386.99 129.891L1374.21 142.582L1373.1 147.035C1380.26 152.447 1389.01 155.357 1397.99 155.318Z" fill="#34A853"/>
<path d="M1397.99 72.9827C1389.4 73.034 1381.04 75.7671 1374.08 80.8003C1367.11 85.8335 1361.9 92.9155 1359.16 101.057C1356.41 109.198 1356.28 117.993 1358.78 126.212C1361.28 134.431 1366.29 141.665 1373.1 146.902L1391.49 128.511C1389.15 127.455 1387.1 125.848 1385.52 123.828C1383.94 121.807 1382.88 119.434 1382.42 116.911C1381.96 114.388 1382.12 111.791 1382.88 109.343C1383.64 106.895 1384.99 104.669 1386.8 102.855C1388.62 101.042 1390.84 99.6954 1393.29 98.9316C1395.74 98.1677 1398.34 98.0092 1400.86 98.4697C1403.38 98.9301 1405.76 99.9958 1407.78 101.575C1409.8 103.155 1411.4 105.201 1412.46 107.538L1430.85 89.147C1426.99 84.1007 1422.02 80.0157 1416.31 77.2115C1410.61 74.4074 1404.34 72.96 1397.99 72.9827Z" fill="#FBBC05"/>
<defs>
<linearGradient id="paint0_linear_279_624" x1="1228.92" y1="41.8252" x2="1186.67" y2="166.647" gradientUnits="userSpaceOnUse">
<stop stop-color="#114A8B"/>
<stop offset="1" stop-color="#0669BC"/>
</linearGradient>
<linearGradient id="paint1_linear_279_624" x1="1242.12" y1="99.9955" x2="1232.34" y2="103.3" gradientUnits="userSpaceOnUse">
<stop stop-opacity="0.3"/>
<stop offset="0.071" stop-opacity="0.2"/>
<stop offset="0.321" stop-opacity="0.1"/>
<stop offset="0.623" stop-opacity="0.05"/>
<stop offset="1" stop-opacity="0"/>
</linearGradient>
<linearGradient id="paint2_linear_279_624" x1="1236.74" y1="38.1845" x2="1283.12" y2="161.749" gradientUnits="userSpaceOnUse">
<stop stop-color="#3CCBF4"/>
<stop offset="1" stop-color="#2892DF"/>
</linearGradient>
<clipPath id="clip0_279_624">
<rect width="201" height="130" fill="white" transform="translate(715 33)"/>
</clipPath>
<clipPath id="clip1_279_624">
<rect width="200" height="107.314" fill="white" transform="translate(470 49)"/>
</clipPath>
</defs>
</svg>
